<?xml version="1.0" standalone="no"?>
<!DOCTYPE svg PUBLIC "-//W3C//DTD SVG 20010904//EN"
 "http://www.w3.org/TR/2001/REC-SVG-20010904/DTD/svg10.dtd">
<svg version="1.0" xmlns="http://www.w3.org/2000/svg"
 width="512.000000pt" height="512.000000pt" viewBox="0 0 512.000000 512.000000"
 preserveAspectRatio="xMidYMid meet">
<metadata>
Created by potrace 1.11, written by Peter Selinger 2001-2013
</metadata>
<g transform="translate(0.000000,512.000000) scale(0.100000,-0.100000)"
fill="#000000" stroke="none">
<path d="M855 3549 c-66 -27 -131 -54 -145 -60 -14 -5 -93 -37 -176 -71 l-152
-61 15 -36 c8 -20 16 -37 17 -38 1 -1 24 4 51 12 98 30 171 16 204 -39 41 -67
44 -136 45 -956 l1 -725 178 -1 177 -2 0 527 0 526 21 -25 c20 -24 41 -52 208
-270 45 -58 87 -112 94 -120 7 -8 55 -71 107 -139 113 -148 208 -272 310 -403
l75 -98 348 2 347 1 0 39 c0 21 -3 38 -7 38 -78 4 -204 36 -268 68 -115 57
-153 96 -400 407 -104 132 -197 249 -207 260 -78 92 -308 388 -308 397 0 5 53
67 117 136 65 70 138 149 163 177 171 187 248 240 348 237 17 -1 81 -24 141
-52 155 -72 224 -73 294 -5 101 98 60 249 -83 306 -51 20 -192 17 -265 -6
-195 -60 -313 -154 -660 -520 -82 -87 -166 -175 -185 -195 -19 -20 -70 -74
-113 -120 -50 -53 -78 -76 -77 -64 1 10 2 223 1 472 l-1 452 -47 -1 c-34 0
-84 -15 -168 -50z"/>
<path d="M3518 3535 c-1 -1 -34 -5 -72 -9 -244 -23 -404 -93 -551 -241 -140
-140 -224 -294 -264 -482 -35 -163 -18 -403 38 -566 103 -297 352 -561 626
-665 250 -96 570 -70 803 66 205 119 344 281 398 462 22 75 24 90 28 210 7
218 -79 430 -254 624 -86 95 -197 188 -302 253 -32 20 -58 36 -58 37 0 1 187
1 415 1 l415 0 1 25 c1 30 1 248 0 273 -1 17 -32 18 -610 17 -335 -1 -611 -3
-613 -5z m302 -373 c253 -276 363 -594 326 -937 -26 -236 -164 -468 -322 -540
-50 -23 -143 -44 -175 -40 -8 1 -40 5 -71 9 -241 27 -495 318 -568 651 -20 87
-22 107 -25 230 -4 139 5 211 41 314 71 203 268 341 524 368 30 3 56 6 57 7 1
1 37 2 79 2 l76 -1 58 -63z"/>
</g>
</svg>
