<?xml version="1.0" standalone="no"?>
<!DOCTYPE svg PUBLIC "-//W3C//DTD SVG 20010904//EN"
 "http://www.w3.org/TR/2001/REC-SVG-20010904/DTD/svg10.dtd">
<svg version="1.0" xmlns="http://www.w3.org/2000/svg"
 width="512.000000pt" height="512.000000pt" viewBox="0 0 512.000000 512.000000"
 preserveAspectRatio="xMidYMid meet">
<metadata>
Created by potrace 1.11, written by Peter Selinger 2001-2013
</metadata>
<g transform="translate(0.000000,512.000000) scale(0.100000,-0.100000)"
fill="#000000" stroke="none">
<path d="M4598 4325 c-58 -20 -85 -41 -114 -91 -61 -103 -30 -238 68 -298 40
-24 58 -29 112 -28 37 0 76 7 93 16 36 18 90 78 105 115 25 65 12 160 -32 221
-44 62 -153 93 -232 65z"/>
<path d="M3855 4229 c-27 -5 -79 -11 -115 -15 -36 -4 -72 -8 -80 -9 -8 -2 -23
-4 -32 -4 -17 -1 -18 -69 -15 -1213 2 -1157 3 -1215 21 -1263 55 -148 168
-225 331 -226 96 0 233 45 222 74 -2 7 -19 56 -36 109 -31 93 -33 97 -56 88
-40 -15 -114 -6 -138 19 l-22 22 -3 1208 c-2 950 -5 1210 -15 1213 -6 2 -34 1
-62 -3z"/>
<path d="M2110 4065 l0 -115 410 0 410 0 0 115 0 115 -410 0 -410 -1 0 -114z"/>
<path d="M958 3474 c-2 -1 -19 -5 -38 -8 -50 -7 -113 -31 -164 -61 -52 -30
-148 -123 -184 -177 -14 -21 -26 -37 -27 -36 -3 4 -14 171 -15 214 l0 30 -140
1 -140 1 0 -1330 0 -1330 62 7 c35 3 74 8 88 10 14 2 50 6 80 10 30 3 62 8 71
10 13 5 15 55 15 444 l-1 439 55 -52 c108 -104 208 -146 345 -147 281 -2 476
182 565 536 38 149 41 177 45 430 4 221 -2 302 -31 450 -57 297 -198 491 -394
544 -39 10 -185 22 -192 15z m91 -279 c104 -53 168 -208 188 -455 9 -109 9
-395 0 -482 -25 -242 -86 -387 -192 -459 -127 -87 -318 -35 -438 120 l-41 53
0 486 -1 487 37 56 c48 75 134 158 193 188 82 41 183 43 254 6z"/>
<path d="M2395 3469 c-22 -4 -56 -10 -75 -13 -77 -13 -99 -19 -202 -53 -150
-49 -145 -43 -112 -133 44 -124 54 -142 72 -135 55 22 196 65 229 70 21 3 50
8 63 11 57 12 188 6 237 -10 131 -44 179 -150 182 -407 l1 -106 -142 -1 c-235
-3 -344 -23 -477 -88 -134 -66 -248 -206 -277 -339 -1 -5 -6 -28 -11 -50 -15
-64 -13 -225 3 -305 14 -66 41 -134 79 -199 22 -39 106 -121 150 -147 53 -31
110 -50 171 -59 217 -29 388 40 510 207 l37 50 27 -59 c15 -32 41 -75 59 -95
35 -41 138 -94 199 -104 l38 -6 33 108 c36 117 38 105 -19 144 -12 8 -31 33
-43 55 -21 38 -22 55 -24 315 -9 898 -9 913 -26 975 -54 190 -171 310 -348
355 -88 23 -259 32 -334 19z m393 -1211 l0 -223 -34 -68 c-39 -78 -43 -84
-105 -146 -85 -85 -219 -109 -315 -57 -91 50 -131 143 -132 311 -2 287 125
398 459 404 l127 2 0 -223z"/>
<path d="M4510 2488 l0 -949 158 3 157 3 1 935 c0 514 -1 940 -3 946 -3 7 -57
11 -158 11 l-155 0 0 -949z"/>
</g>
</svg>
